<?xml version="1.0" encoding="UTF-8" standalone="no"?>
<svg
   xmlns:dc="http://purl.org/dc/elements/1.1/"
   xmlns:cc="http://creativecommons.org/ns#"
   xmlns:rdf="http://www.w3.org/1999/02/22-rdf-syntax-ns#"
   xmlns:svg="http://www.w3.org/2000/svg"
   xmlns="http://www.w3.org/2000/svg"
   xmlns:sodipodi="http://sodipodi.sourceforge.net/DTD/sodipodi-0.dtd"
   xmlns:inkscape="http://www.inkscape.org/namespaces/inkscape"
   width="255.84073mm"
   height="387.28918mm"
   viewBox="0 0 255.84073 387.28918"
   version="1.1"
   id="svg144"
   inkscape:version="1.0.2 (e86c870879, 2021-01-15, custom)"
   sodipodi:docname="Art Nouveau frame.svg">
  <defs
     id="defs138" />
  <sodipodi:namedview
     id="base"
     pagecolor="#ffffff"
     bordercolor="#666666"
     borderopacity="1.0"
     inkscape:pageopacity="0.0"
     inkscape:pageshadow="2"
     inkscape:zoom="0.49497475"
     inkscape:cx="16.573235"
     inkscape:cy="728.18578"
     inkscape:document-units="mm"
     inkscape:current-layer="layer1"
     inkscape:document-rotation="0"
     showgrid="false"
     inkscape:window-width="1920"
     inkscape:window-height="1057"
     inkscape:window-x="-8"
     inkscape:window-y="-8"
     inkscape:window-maximized="1" />
  <metadata
     id="metadata141">
    <rdf:RDF>
      <cc:Work
         rdf:about="">
        <dc:format>image/svg+xml</dc:format>
        <dc:type
           rdf:resource="http://purl.org/dc/dcmitype/StillImage" />
        <dc:title></dc:title>
      </cc:Work>
    </rdf:RDF>
  </metadata>
  <g
     inkscape:label="Layer 1"
     inkscape:groupmode="layer"
     id="layer1"
     transform="translate(18.419715,53.989779)">
    <path
       style="fill:#000000;stroke-width:0.264583"
       d="m 196.66592,332.27877 c -1.82252,-0.88464 -2.34944,-1.31197 -3.95476,-3.20733 -3.90063,-4.60539 -4.32565,-4.8595 -8.20208,-4.90387 -2.42977,-0.0278 -2.64583,-0.0721 -2.64583,-0.54245 0,-0.66537 2.15836,-1.15379 5.73491,-1.29778 2.40755,-0.0969 2.99702,-0.0201 5.64217,0.73594 3.53987,1.01163 5.57968,3.46413 6.24218,7.50506 0.3264,1.99089 0.22859,2.73106 -0.36089,2.73106 -0.19417,0 -1.29923,-0.45929 -2.4557,-1.02063 z M 18.288714,330.98429 c 0.218009,-2.75415 0.895342,-4.43375 2.476944,-6.14206 2.490521,-2.69007 5.453484,-3.72496 9.762523,-3.40987 3.970496,0.29033 4.98163,0.47826 5.539354,1.02952 0.726122,0.71773 0.26399,1.05521 -1.098056,0.80187 -1.730346,-0.32184 -4.00535,-0.0512 -5.350722,0.63662 -1.252617,0.64034 -2.078902,1.43256 -3.870142,3.71049 -2.532449,3.22053 -5.073314,5.15937 -6.761428,5.15937 h -0.83984 z m 146.000796,-7.10038 c -3.63622,-0.5293 -5.36282,-1.20751 -7.86034,-3.08753 -1.20993,-0.9108 -1.74964,-2.26213 -1.23188,-3.08443 0.50287,-0.79867 1.14341,-0.6001 2.69344,0.83494 0.84892,0.78595 2.00313,1.64711 2.5649,1.91371 0.90949,0.43156 1.19451,0.44892 2.60128,0.15835 2.15341,-0.44476 3.37925,-1.12146 4.4575,-2.46065 0.98624,-1.22492 2.83946,-4.30728 2.83946,-4.72273 0,-0.41027 2.15227,-2.63057 2.9497,-3.04295 1.07664,-0.55674 3.0939,-0.47268 4.33026,0.18047 1.21042,0.63945 2.27958,1.5543 2.11939,1.81348 -0.0601,0.0973 -0.65202,0.45601 -1.31529,0.79717 -0.66328,0.34112 -1.49559,0.99996 -1.84958,1.46407 -1.67117,2.19101 -5.02927,4.7948 -7.37764,5.72045 -0.75298,0.29678 -1.48842,0.63815 -1.6343,0.75858 -0.14589,0.12042 -0.71069,0.30219 -1.25512,0.40394 -0.54443,0.10174 -0.92436,0.29099 -0.84428,0.42053 0.24406,0.39492 5.04949,0.26265 7.07359,-0.19468 3.59587,-0.81245 7.32892,-3.11986 9.18336,-5.67626 0.57217,-0.78875 1.34467,-1.85082 1.71665,-2.36014 0.37198,-0.50932 1.21235,-1.66148 1.86748,-2.56034 1.60168,-2.19758 3.78024,-4.14351 5.07221,-4.5306 1.92324,-0.57623 4.19045,-0.39912 6.67317,0.52128 1.24425,0.46128 2.417,0.95698 2.60611,1.1016 0.20991,0.16052 0.31296,0.68402 0.26458,1.34413 -0.0775,1.05696 -0.103,1.08294 -1.13758,1.15816 -2.62598,0.19093 -5.39509,1.6419 -7.67292,4.02053 -1.29889,1.35639 -4.71455,4.23691 -5.02402,4.23691 -0.0866,0 -0.42039,0.24535 -0.74173,0.54523 -0.70387,0.65682 -5.0372,2.78251 -6.75834,3.31525 -4.46311,1.38142 -9.38076,1.72903 -14.31006,1.01153 z M 48.777825,323.60099 c -6.636597,-0.44138 -11.154686,-1.82917 -16.093737,-4.94342 -1.28447,-0.80989 -3.324413,-2.40096 -4.533205,-3.53568 -4.557879,-4.27858 -5.229185,-4.73586 -7.563548,-5.15234 -1.870912,-0.33377 -1.976419,-0.39029 -2.057991,-1.10209 -0.115358,-1.00666 0.507016,-1.63383 2.279381,-2.29696 2.595639,-0.97115 3.942072,-1.15181 5.93307,-0.796 3.094357,0.55301 5.359823,2.64615 8.287848,7.65747 1.059571,1.81345 4.092464,5.05076 4.731832,5.05076 0.212389,0 0.461391,0.12174 0.553342,0.27051 0.276368,0.44717 3.195196,1.82293 4.823161,2.27335 1.469155,0.40651 4.347239,0.64686 5.028909,0.42 0.601739,-0.20026 0.344302,-0.53713 -0.661458,-0.86558 -0.545703,-0.17822 -1.407144,-0.54465 -1.914311,-0.81428 -0.507169,-0.26964 -1.052232,-0.49025 -1.211252,-0.49025 -0.296632,0 -2.147242,-1.83454 -4.652851,-4.61243 -2.119832,-2.35018 -2.246398,-2.46835 -3.13803,-2.92944 -1.149848,-0.59459 -0.928616,-1.16377 0.798118,-2.05335 1.236903,-0.63722 1.681081,-0.7307 2.983968,-0.62804 2.267159,0.17865 3.736385,1.51244 5.52241,5.01332 0.933329,1.82949 2.589313,3.88747 3.834104,4.76489 3.115831,2.19625 6.162477,1.91857 8.486606,-0.77346 1.24896,-1.44666 1.879695,-1.72276 2.427549,-1.06262 0.378974,0.45662 0.09632,1.23447 -0.987324,2.71703 -1.749817,2.39401 -7.813977,4.22532 -12.876591,3.88861 z m 152.532295,-2.56421 c -7.46877,-0.15243 -11.03776,-0.31708 -11.16018,-0.5149 -0.099,-0.15997 -0.0631,-0.50927 0.0798,-0.77624 0.24864,-0.46458 0.93953,-0.48022 16.12113,-0.36518 l 15.86135,0.1202 0.0188,-9.57093 c 0.0301,-15.36509 -0.0125,-21.17301 -0.1587,-21.63363 -0.18782,-0.59174 0.74273,-1.69325 1.26209,-1.49397 0.63709,0.24448 0.776,4.37679 0.68156,20.27444 l -0.0839,14.12613 -5.82084,0.0291 c -3.20145,0.0159 -10.76192,-0.0718 -16.80104,-0.195 z m -204.9197973,-1.23113 -2.6458335,-0.13229 0.063253,-8.33438 c 0.034789,-4.5839 0.080631,-12.11903 0.1018712,-16.74471 0.036083,-7.8582 0.070418,-8.42735 0.5230273,-8.66958 0.382851,-0.20489 0.5705991,-0.12771 0.8955117,0.36817 0.3394503,0.51808 0.3884051,1.2682 0.2808785,4.30395 -0.2723918,7.69033 -0.4290423,27.04875 -0.2199273,27.178 0.4538626,0.28051 6.7090912,0.43508 19.1884774,0.47416 13.404382,0.042 13.681475,0.0655 13.274416,1.12628 -0.09084,0.23672 -0.241721,0.4318 -0.335293,0.43349 -5.066716,0.0926 -29.260961,0.0902 -31.1263815,-0.003 z M 64.111408,319.6233 c -0.199178,-0.19918 -0.294931,-0.53729 -0.212783,-0.75134 0.123479,-0.32179 0.935202,-0.38873 4.685112,-0.38634 2.494664,0.003 7.15513,-0.0116 10.356589,-0.0295 3.201458,-0.0177 21.507314,-0.019 40.679684,-0.003 l 34.85886,0.0296 v 0.78394 0.78393 l -45.00266,-0.0326 c -37.699132,-0.0273 -45.061436,-0.0914 -45.364802,-0.39473 z m 130.988102,-2.72807 c -0.95483,-0.16682 -1.0951,-0.56517 -0.41556,-1.18015 0.49723,-0.44997 1.2515,-0.47672 12.04236,-0.42687 l 11.51189,0.0532 0.0688,-12.35733 c 0.0632,-11.36145 0.1055,-12.38049 0.52452,-12.64473 0.32783,-0.20677 0.53636,-0.2068 0.74301,-1.6e-4 0.19759,0.19759 0.30312,4.40888 0.33802,13.48782 l 0.0507,13.20051 h -12.05327 c -6.6293,0 -12.39401,-0.0595 -12.81047,-0.13229 z M 63.895606,315.49929 c -0.07881,-0.30139 -0.07662,-0.65585 0.0049,-0.78772 0.08149,-0.13184 2.129573,-0.21304 4.551299,-0.18042 2.421726,0.0326 4.5222,0.028 4.667721,-0.0103 0.145521,-0.0383 18.519193,-0.0555 40.830384,-0.0382 l 40.56579,0.0314 -0.0845,0.59531 -0.0846,0.59532 -38.76146,0.0498 c -21.318803,0.0274 -41.638031,0.10451 -45.153839,0.17132 -6.293165,0.11961 -6.394601,0.113 -6.535674,-0.42646 z m -65.88156,0.0246 c -0.3135733,-0.1755 -0.357968,-1.27598 -0.2674371,-6.6294 0.059703,-3.53044 0.1063839,-9.13138 0.1037363,-12.44656 -0.00414,-5.18163 0.052268,-6.04949 0.4019153,-6.18366 0.2237012,-0.0858 0.6569694,0.0667 0.96281824,0.33904 0.54861038,0.48845 0.55355015,0.59296 0.36730967,7.77116 -0.24273167,9.35551 -0.18910724,15.14279 0.14341873,15.47812 0.16478462,0.16619 4.65774106,0.29311 12.08030486,0.34129 10.502726,0.0682 11.871186,0.12488 12.29639,0.50967 0.294272,0.26633 0.383918,0.52752 0.232881,0.67857 -0.302729,0.30274 -25.7884346,0.43998 -26.321337,0.14177 z M 233.54419,296.38582 c -2.05803,-0.40982 -2.53922,-0.63712 -4.32053,-2.04089 -2.50238,-1.97205 -4.11179,-5.46807 -4.09265,-8.89027 0.0119,-2.1341 0.69194,-6.62485 1.07261,-7.08353 0.69211,-0.83394 0.90338,-0.20359 0.90338,2.69529 0,2.26322 0.10127,3.07358 0.46797,3.74459 0.72725,1.33078 1.98923,2.64988 3.48501,3.6427 1.78785,1.18671 4.81488,4.33549 5.31229,5.52593 0.5945,1.42285 0.51558,2.44793 -0.20329,2.64057 -0.32742,0.0878 -0.65485,0.14999 -0.72761,0.1383 -0.0728,-0.0116 -0.92649,-0.17942 -1.89718,-0.37269 z m -21.82569,-0.25377 c -0.98327,-0.68871 -1.99274,-3.68985 -2.14034,-6.3632 -0.11441,-2.07232 -0.0531,-2.57101 0.46405,-3.77309 0.71256,-1.6564 2.91588,-3.79751 5.82,-5.65568 1.0914,-0.69831 2.44274,-1.59946 3.00297,-2.00252 1.05021,-0.75563 3.18177,-3.07893 3.77511,-4.11472 1.06687,-1.86246 1.92237,-4.02926 2.184,-5.53167 0.34672,-1.99105 0.3951,-4.71252 0.0838,-4.71252 -0.11801,0 -0.35955,0.56554 -0.53675,1.25677 -0.64852,2.52976 -2.44023,5.06481 -5.0765,7.18272 -1.69973,1.36551 -3.03368,2.77937 -3.58287,3.79748 -0.21686,0.40201 -0.61818,0.72761 -0.89685,0.72761 -1.02047,0 -2.23289,-2.52786 -2.18662,-4.55906 0.051,-2.23713 1.39251,-3.71594 5.20207,-5.73432 3.25594,-1.72505 4.71303,-3.22315 5.55928,-5.71574 0.87407,-2.5745 0.26428,-4.60867 -1.93303,-6.44837 -1.41673,-1.18615 -1.72953,-2.0429 -0.97461,-2.66943 0.29813,-0.24744 0.59985,-0.25051 1.31816,-0.0135 1.05213,0.34724 3.31437,2.54905 3.31915,3.23048 0.002,0.24607 0.124,0.52211 0.27172,0.61341 0.77901,0.48144 1.81783,4.71374 2.00462,8.16711 0.25567,4.72686 -1.25787,11.87566 -3.35316,15.83775 -0.13363,0.2527 -0.24296,0.61542 -0.24296,0.80608 0,0.19065 -0.18227,0.57922 -0.40504,0.86349 -0.22277,0.28427 -0.87763,1.1539 -1.45525,1.93252 -0.94861,1.27873 -4.19702,5.06981 -4.90799,5.72793 -0.54648,0.50584 -2.3285,3.41943 -2.6623,4.35285 -0.18468,0.51641 -0.34101,1.30209 -0.34739,1.74593 -0.0199,1.38266 -1.11607,1.88317 -2.30324,1.05164 z M 4.8569897,295.76159 c -0.760352,-0.16185 -0.800607,-0.24125 -0.9567133,-1.88693 -0.2655115,-2.79903 -1.1084145,-4.28464 -4.26886545,-7.52377 -2.28452155,-2.34138 -5.22546335,-6.30624 -5.22546335,-7.04472 0,-0.26384 -0.1199409,-0.55383 -0.2665354,-0.64445 -0.3313592,-0.20478 -1.3209647,-2.22324 -1.3209647,-2.6943 0,-0.19095 -0.09555,-0.34719 -0.2123334,-0.34719 -0.1167834,0 -0.3547851,-0.62508 -0.5288928,-1.38906 -1.1357222,-4.98353 -1.3417876,-6.36672 -1.3540376,-9.08883 -0.011687,-2.59684 0.1439212,-3.8231 1.0206242,-8.04294 0.196433,-0.94549 1.6460841,-4.04355 2.2100316,-4.72305 0.4832202,-0.58224 2.4606947,-1.34109 3.0756747,-1.18028 0.892786,0.23347 0.6399337,1.16819 -0.6664822,2.46375 -1.8011512,1.7862 -2.3199822,2.95103 -2.1138519,4.74583 0.3589052,3.12502 2.1230313,5.15689 6.45032285,7.42934 2.66642515,1.40023 3.81827475,2.80077 4.15607775,5.05341 0.1500572,1.00065 0.066484,1.44232 -0.4749607,2.51007 -0.361383,0.71263 -0.8996899,1.51495 -1.1962373,1.78292 -0.5305992,0.47946 -0.550708,0.46895 -1.2639488,-0.66145 -0.3986242,-0.63178 -1.60701256,-2.02258 -2.68530742,-3.09071 -2.29057498,-2.26896 -4.12281408,-4.96236 -5.19862688,-7.64196 -0.4214776,-1.04981 -0.867962,-1.84592 -0.9921876,-1.76916 -0.3224459,0.19928 -0.2792214,4.11461 0.068139,6.17212 0.3536339,2.09468 1.7026848,4.95453 3.2928622,6.98061 0.6414884,0.81732 2.2102303,2.2589 3.48609268,3.20352 5.93740632,4.39592 7.27215782,5.65928 8.11807582,7.68384 0.5802868,1.38883 0.524211,3.83636 -0.139073,6.06997 -0.7730146,2.60313 -1.5067254,3.94925 -2.0873773,3.82963 -0.07276,-0.0151 -0.4894792,-0.10329 -0.9260417,-0.19621 z m -23.1513587,-0.69485 c -0.270891,-0.32642 -0.137729,-0.79193 0.746621,-2.61012 0.903926,-1.85843 1.343529,-2.42731 2.744692,-3.55195 0.917608,-0.73649 2.011352,-1.61578 2.430542,-1.95395 2.5521152,-2.05888 3.1796836,-3.40013 3.1952165,-6.82892 0.00955,-2.10883 0.080616,-2.52325 0.4447178,-2.59339 0.7084682,-0.13645 1.146405,2.24962 1.1308914,6.16161 -0.015227,3.8398 -0.4049864,5.70257 -1.5852977,7.57667 -0.8074001,1.28201 -1.063929,1.5209 -2.694697,2.50962 -1.102949,0.66871 -4.400343,1.67413 -5.520077,1.68315 -0.309604,0.003 -0.711278,-0.17423 -0.892609,-0.39272 z M 218.29189,251.30849 c -0.24825,-0.1534 -0.30707,-8.90722 -0.26259,-39.07372 0.0597,-40.51335 0.0351,-117.869253 -0.0507,-159.22309 -0.0274,-13.221319 0.0528,-24.141403 0.1782,-24.266852 0.12545,-0.12545 0.49393,-0.158573 0.81884,-0.07361 l 0.59075,0.154484 0.007,15.248829 c 0.004,8.386855 0.0424,50.729453 0.0859,94.094659 0.0435,43.36521 0.0252,86.49954 -0.0406,95.85405 -0.10948,15.56869 -0.15714,17.02831 -0.56315,17.24562 -0.24394,0.13054 -0.58751,0.1484 -0.76346,0.0396 z m 3.8984,-0.0777 c -0.0121,-0.0465 -0.0608,-39.13706 -0.10838,-86.8679 -0.0476,-47.73083 -0.10019,-97.724179 -0.11698,-111.096334 -0.0168,-13.372152 0.0264,-24.369966 0.096,-24.439586 0.31566,-0.315663 1.42891,0.249899 1.56585,0.795494 0.18374,0.732094 0.10318,193.921056 -0.0876,210.014386 l -0.13643,11.50937 -0.59531,0.0846 c -0.32742,0.0465 -0.60518,0.0465 -0.61723,0 z M -5.0404477,250.50551 c -0.3178604,-0.20122 -0.3469966,-3.81611 -0.1988281,-24.66832 0.3418705,-48.11245 0.4362622,-67.20187 0.5734805,-115.97841 0.076554,-27.212397 0.1962806,-56.44224 0.2660594,-64.955208 0.069779,-8.512969 0.1272596,-15.813828 0.1277353,-16.224131 7.144e-4,-0.622104 0.099739,-0.731964 0.5961774,-0.661458 l 0.5953126,0.08455 -0.056785,12.802915 c -0.031232,7.041605 -0.050991,27.282229 -0.043908,44.979166 0.022429,56.044306 -0.033903,90.071886 -0.1660562,100.306456 -0.070463,5.45703 -0.1990096,22.12504 -0.2856582,37.04002 -0.086648,14.91496 -0.2131902,27.20817 -0.2812034,27.31823 -0.164619,0.26636 -0.6672774,0.24681 -1.126326,-0.0438 z m 3.7679128,-0.43709 c -0.2082162,-0.54261 0.1020141,-49.78461 0.31582814,-50.13057 0.0896932,-0.14512 0.21504593,-31.48557 0.27856154,-69.64543 0.0918276,-55.169461 0.24729865,-98.872155 0.36289696,-102.009854 0.007673,-0.208259 0.25306709,-0.315018 0.60817524,-0.264583 l 0.59531252,0.08455 -0.0842566,72.760417 c -0.046341,40.01822 -0.12701641,75.91557 -0.17927876,79.77187 -0.0956321,7.05647 -0.13639087,14.89456 -0.15615894,30.03021 -0.0216509,16.57797 -0.24576697,39.34764 -0.38957675,39.58031 -0.24325978,0.3936 -1.17960665,0.27101 -1.35150335,-0.17692 z M 221.4846,28.176484 c -0.9768,-0.471096 -0.75649,-1.413478 0.62398,-2.669101 1.32389,-1.204161 2.48488,-3.20472 2.48488,-4.281834 0,-0.867428 -0.98229,-3.678766 -1.32582,-3.794545 -0.14393,-0.04851 -0.26168,-0.24991 -0.26168,-0.447559 0,-0.459078 -2.64262,-2.46345 -4.36563,-3.311236 -3.15345,-1.551623 -4.89479,-3.7366339 -4.89479,-6.1419212 0,-0.976876 0.1996,-1.5169171 0.99219,-2.6845021 0.5457,-0.8038915 1.13859,-1.4661621 1.31754,-1.4717077 0.17894,-0.00556 0.56097,0.4517734 0.84896,1.0162725 0.28798,0.5644964 1.30223,1.7099517 2.25389,2.5454583 2.76384,2.4265148 5.29725,6.4522322 6.24394,9.9219302 0.31184,1.142899 0.33292,1.161899 0.52607,0.473964 0.30707,-1.093708 0.10972,-4.345083 -0.39814,-6.55938 -1.00876,-4.3982908 -3.3383,-7.8251846 -6.93183,-10.19715563 -1.78978,-1.18137513 -5.50267,-4.17522277 -6.3808,-5.14509267 -0.86509,-0.9554607 -1.7038,-2.6176657 -1.92845,-3.8218876 -0.40893,-2.1921521 1.01613,-7.7544191 2.14092,-8.3563911 0.68181,-0.364892 1.99373,-0.325072 2.30647,0.07001 0.14399,0.181901 0.32385,1.052555 0.39968,1.934785 0.19771,2.300046 1.15192,3.955856 4.07446,7.070301 4.72923,5.0397567 7.17121,9.6081795 8.37472,15.6673096 0.17876,0.9000067 0.30493,3.5926924 0.29134,6.2177084 -0.0198,3.815352 -0.12546,5.038121 -0.6006,6.948066 -0.73863,2.969112 -1.888,5.219044 -3.27074,6.402626 -1.15146,0.985599 -1.54904,1.082431 -2.52056,0.613886 z M -3.9035511,26.29653 c -2.9828631,-1.577653 -4.4479619,-5.736376 -4.4437807,-12.613791 0.00175,-2.866281 0.140762,-4.2129522 0.7037491,-6.8171533 0.3858678,-1.7849003 0.8761905,-3.5708378 1.0896063,-3.9687499 0.2134156,-0.3979095 0.5861516,-1.2566782 0.8283022,-1.9083734 0.2421507,-0.65169783 0.7875459,-1.69946368 1.2119894,-2.3283677 0.4244438,-0.6289066 0.7717158,-1.2108417 0.7717158,-1.2931907 0,-0.3335178 2.1177505,-3.0236106 4.39185595,-5.5787976 2.71996125,-3.0561544 4.02546575,-5.2594644 4.25258375,-7.1771194 0.1433389,-1.210265 0.2133899,-1.313849 0.9629519,-1.42386 1.033788,-0.151728 1.7974681,0.631243 2.612615,2.67861 0.4726808,1.187212 0.5955189,2.029989 0.602951,4.1367944 0.00852,2.4165454 -0.053493,2.7527091 -0.7156556,3.8791091 -0.9439063,1.6056821 -3.2493586,3.6502524 -5.8636616,5.20014714 -3.8982689,2.31109306 -6.9766111,5.96247256 -8.1412417,9.65674636 -0.5828511,1.848837 -0.9977276,7.325455 -0.5549334,7.325455 0.1475299,0 0.3404243,-0.446484 0.4286547,-0.992187 0.08823,-0.545703 0.5791806,-1.864014 1.0910007,-2.929581 0.9288015,-1.933683 2.0789109,-3.241545 5.750417,-6.5391555 C 1.8917232,4.8700242 2.820294,3.8282273 3.1390598,3.2879614 3.7952858,2.1757404 3.9486314,2.1181009 4.5205722,2.7686769 6.4832803,5.0012363 6.5487038,8.1777655 4.6695384,10.001435 3.8092782,10.836288 1.3566049,12.46391 0.35907282,12.861906 c -0.67761752,0.270354 -2.67363032,1.78308 -3.47806072,2.635928 -1.7862281,1.893736 -2.4685909,5.385736 -1.4440068,7.389717 0.2760404,0.539906 0.9904154,1.419418 1.5875001,1.954474 1.1340923,1.016275 1.4590165,2.08606 0.6225882,2.049817 -0.2546615,-0.01103 -0.9524517,-0.278924 -1.5506447,-0.595312 z M 227.14124,1.3027292 c -0.40838,-0.66076512 -0.95964,-4.0979168 -0.95569,-5.9588028 0.0151,-7.1254064 2.69852,-10.7644744 8.54021,-11.5816854 3.09294,-0.432684 3.19394,-0.315211 1.9503,2.268516 -1.09643,2.277875 -2.47179,3.859522 -5.17934,5.9561494 -2.59347,2.0082985 -3.27915,3.3984961 -3.42126,6.9364937 -0.0771,1.91991718 -0.19449,2.588506 -0.45445,2.588506 -0.19277,0 -0.40867,-0.094128 -0.47977,-0.2091769 z M -8.2062718,-1.3349337 c 0.056871,-2.5769967 -0.4359114,-4.503113 -1.437788,-5.6198266 -0.3263908,-0.3638021 -1.3048342,-1.1953372 -2.1743192,-1.8478553 -3.801426,-2.8528404 -6.051863,-5.5995784 -5.898251,-7.1990214 0.08251,-0.859144 0.10971,-0.876464 1.501195,-0.955945 2.811982,-0.16062 6.030478,1.48367 7.6678491,3.917405 2.1781096,3.2374735 2.4528212,4.7045378 1.9140784,10.2219097 -0.3017126,3.08989939 -0.5356926,3.80100677 -1.2506669,3.80100677 -0.2967575,0 -0.3627636,-0.47495089 -0.3220974,-2.31767317 z M 223.56963,-6.9241136 c -0.46905,-0.3019531 -0.46589,-0.033663 -0.20207,-17.1290264 0.1739,-11.26833 0.15282,-14.629499 -0.0927,-14.781236 -0.51819,-0.320255 -4.4156,-0.420957 -18.49644,-0.477912 -11.94538,-0.04832 -13.36076,-0.09837 -13.60201,-0.480988 -0.14809,-0.234882 -0.19418,-0.622711 -0.10242,-0.861842 0.15275,-0.39807 1.60299,-0.429035 17.17388,-0.366692 l 17.00703,0.06809 -0.008,6.482292 c -0.0161,13.3513 -0.19582,26.2893033 -0.37453,26.9575852 -0.19725,0.7375446 -0.71166,0.9703752 -1.30296,0.5897272 z M -4.7817466,-7.7138393 c -0.2677496,-0.5002953 -0.3647837,-32.4828297 -0.1015058,-33.4564287 0.1244864,-0.46035 0.8519835,-0.475755 16.8414264,-0.356616 9.191223,0.06848 16.741082,0.136166 16.777462,0.150404 0.21389,0.08371 0.01273,1.062762 -0.264583,1.287725 -0.207923,0.168674 -2.541252,0.240872 -6.283854,0.194435 -3.274219,-0.04062 -10.235851,-0.09425 -15.4702943,-0.119175 -8.8697549,-0.04223 -9.5407256,-0.01309 -9.8634718,0.428287 -0.2767216,0.378439 -0.3414879,3.601805 -0.322335,16.04234 0.023822,15.4733784 -0.019161,16.3235243 -0.8253214,16.3235243 -0.1225825,0 -0.3419679,-0.2225225 -0.4875231,-0.4944956 z m 4.10930289,-3.1662797 c -0.20548786,-0.332488 -0.46602119,-23.821854 -0.28067504,-25.305315 l 0.17333649,-1.387338 12.60796926,0.02932 12.60797,0.02932 0.0822,0.577411 c 0.167674,1.177781 -0.336579,1.219475 -12.237932,1.0119 -9.5211669,-0.166062 -11.1909296,-0.139129 -11.45980368,0.184845 -0.23596177,0.284316 -0.29102818,3.287382 -0.22002063,11.998907 0.0520917,6.390822 -0.001587,11.872962 -0.11928608,12.182533 -0.22513396,0.592148 -0.94534649,1.015637 -1.15375932,0.67842 z m 220.60635371,-0.3206 c -0.30718,-0.114224 -0.63868,-0.416592 -0.73667,-0.671934 -0.098,-0.255341 -0.0958,-5.485466 0.005,-11.622497 0.13511,-8.241419 0.10407,-11.206969 -0.11871,-11.344659 -0.1659,-0.102532 -5.57219,-0.252503 -12.01398,-0.33327 -9.62773,-0.120711 -11.82121,-0.215614 -12.32407,-0.533211 -0.80484,-0.508319 -0.62,-0.953228 0.49923,-1.201625 0.97238,-0.215809 25.01445,-0.231565 25.57422,-0.01676 0.2641,0.10134 0.33517,2.837704 0.33517,12.904289 0,13.537649 0.0243,13.282334 -1.21996,12.819666 z m -29.20812,-15.737523 c -2.21588,-0.683299 -4.8053,-3.45768 -6.78404,-7.268601 -0.42153,-0.811842 -1.65607,-2.35366 -2.79235,-3.487387 -1.6114,-1.607761 -2.55427,-2.289075 -4.51461,-3.262239 -2.26753,-1.125659 -2.72976,-1.254511 -5.44605,-1.518129 -2.24219,-0.217607 -3.04383,-0.212448 -3.27738,0.02109 -0.23582,0.235827 -0.14807,0.309162 0.36994,0.309162 0.87811,0 3.23618,0.961133 4.58611,1.869273 1.29675,0.87236 2.93526,2.451473 5.01964,4.837679 0.86903,0.994868 2.02989,2.038339 2.57969,2.318827 0.54979,0.280487 0.99963,0.665395 0.99963,0.855353 0,0.928536 -2.65786,2.289701 -4.47096,2.289701 -2.50711,0 -4.07019,-1.425837 -6.39687,-5.835189 -1.24859,-2.366238 -3.18751,-4.259685 -5.09144,-4.972037 -1.74578,-0.653178 -2.04484,-0.675089 -3.87043,-0.283568 -1.31822,0.282706 -1.75484,0.620838 -3.49554,2.707055 -0.71471,0.856578 -1.45716,0.758413 -1.70406,-0.225307 -0.37388,-1.489653 1.02111,-3.176225 3.68812,-4.459003 5.78741,-2.783631 15.92591,-2.124778 23.419,1.52189 1.90838,0.92875 6.18334,4.045882 9.82843,7.166502 2.28625,1.957291 4.32412,3.056741 5.66579,3.056741 1.14225,0 1.7807,0.801018 1.55402,1.949746 -0.11899,0.602999 -0.43637,0.89032 -1.54322,1.397053 -3.02477,1.384787 -5.95707,1.74109 -8.32342,1.011385 z M 24.670895,-27.053126 c -1.488043,-0.228701 -3.798136,-0.935075 -4.931092,-1.507816 -0.569058,-0.287673 -0.726721,-0.553717 -0.723554,-1.220925 0.0058,-1.223311 0.222734,-1.414049 1.817571,-1.598176 0.783614,-0.09047 2.152833,-0.510354 3.042709,-0.933079 1.648555,-0.783125 2.160027,-1.187683 5.189837,-4.105008 2.621473,-2.524148 4.613312,-3.896111 7.805208,-5.376162 4.434338,-2.05616 7.167777,-2.731757 11.773959,-2.910052 6.437337,-0.249175 12.620906,1.523577 14.536002,4.16729 0.445408,0.614867 0.809832,1.319748 0.809832,1.566402 0,0.492887 -0.794642,1.324226 -1.265772,1.324226 -0.163936,0 -0.959017,-0.645296 -1.766848,-1.433991 -0.823979,-0.80446 -1.990863,-1.633375 -2.658015,-1.888162 -1.047112,-0.399896 -1.38063,-0.413555 -2.790822,-0.114291 -2.834069,0.60143 -4.821201,2.556199 -6.855381,6.743735 -0.670484,1.380247 -0.949206,1.702655 -2.476659,2.864821 -1.112205,0.846225 -1.464633,0.971638 -2.730453,0.971638 -1.172797,0 -1.669896,-0.148942 -2.574639,-0.771422 -1.87669,-1.291196 -1.951008,-1.497674 -0.758111,-2.106242 0.568363,-0.289957 1.723613,-1.279148 2.567226,-2.198203 2.957169,-3.221618 5.654136,-5.054281 9.093367,-6.179197 0.756926,-0.247578 1.440979,-0.554908 1.520116,-0.682956 0.202065,-0.326947 -4.757965,-0.290831 -6.651771,0.04844 -2.059037,0.368866 -6.002631,2.28686 -7.607022,3.699728 -1.246741,1.09791 -3.346162,3.750629 -4.820722,6.091205 -1.023281,1.624267 -3.768698,4.436997 -4.891122,5.011047 -1.179404,0.603192 -2.918277,0.803897 -4.653844,0.537155 z m 40.330916,-8.241972 c -0.144645,-0.08922 -0.222809,-0.446405 -0.173697,-0.79375 l 0.0893,-0.631537 45.316966,-0.06937 c 48.68059,-0.07452 46.0823,-0.142008 45.3435,1.177779 -0.2572,0.459472 -2.11192,0.479091 -45.29062,0.479091 -24.762352,0 -45.140797,-0.073 -45.285444,-0.162213 z m -0.122963,-4.340781 c -0.464897,-1.211502 -2.78462,-1.155243 45.466022,-1.102655 l 45.32463,0.0494 v 0.661458 0.661458 l -45.32015,0.06107 c -39.817591,0.05365 -45.338409,0.0135 -45.470502,-0.330729 z m 122.546862,-2.80926 c -3.25334,-0.384435 -4.75525,-0.829127 -4.84438,-1.434344 -0.0708,-0.480944 0.10691,-0.514662 2.77812,-0.527013 2.62791,-0.01215 2.96402,-0.07322 4.24628,-0.771515 0.99691,-0.542897 1.67023,-1.17803 2.3702,-2.235763 2.68011,-4.04991 6.68222,-7.094303 8.54772,-6.502217 0.45452,0.144259 0.49397,0.341377 0.36018,1.799639 -0.32365,3.527768 -1.43667,5.59435 -4.07162,7.55996 -2.66368,1.987036 -5.34118,2.589272 -9.3865,2.111253 z m -157.61065,-0.36162 c -0.05589,-0.05589 -0.77768,-0.174624 -1.603973,-0.263851 -5.451028,-0.588631 -8.372071,-3.535194 -8.852118,-8.929462 -0.157104,-1.765336 -0.151405,-1.785937 0.494009,-1.785937 0.878232,0 3.593979,1.345229 4.611273,2.284166 0.452016,0.417198 1.687374,1.80289 2.745242,3.079315 1.057871,1.276425 2.235851,2.534742 2.61774,2.79626 1.101511,0.754317 2.865565,1.148314 4.898808,1.094136 1.034524,-0.02757 2.029778,-0.03737 2.211679,-0.02179 0.494575,0.04236 0.398846,0.502423 -0.167629,0.805591 -0.700548,0.374922 -6.708344,1.188258 -6.955031,0.941572 z"
       id="path160" />
  </g>
</svg>
