<?xml version="1.0" encoding="UTF-8"?><svg id="Elements" xmlns="http://www.w3.org/2000/svg" viewBox="0 0 912 612"><defs><style>.cls-1{fill:#fff;}</style></defs><path id="WindowFrame8" class="cls-1" d="M0,0v612h912V0H0ZM23.87,115.29v381.43c-6.73,8.68-9.32,17.71-7.69,26.88,1.39,7.81,5.86,14.72,11.29,20.23-6.23,1.13-11.27,2.85-15.47,6.03V62.15c4.2,3.17,9.24,4.9,15.47,6.03-5.44,5.51-9.91,12.42-11.29,20.23-1.63,9.17.96,18.2,7.69,26.88ZM46.9,553.63c.59,1.63,1.02,3.23,1.24,4.61-4.17,3.68-8.49,7.48-12.91,11.34-3.66-.5-9.03-2.69-12.2-4.94,2.09,2.95,4.13,7.8,4.81,11.41-4.31,3.76-8.68,7.57-13.08,11.38-4.3-8.61-2.34-18.7.3-23.13,4.09-6.85,8.56-8.49,28.17-10.32l3.67-.34ZM15.06,47.7c-2.64-4.43-4.61-14.52-.3-23.13,4.4,3.82,8.77,7.62,13.08,11.38-.68,3.61-2.72,8.46-4.81,11.41,3.17-2.25,8.54-4.44,12.2-4.94,4.41,3.87,8.73,7.66,12.91,11.34-.22,1.38-.66,2.98-1.24,4.61l-3.67-.34c-19.6-1.83-24.08-3.47-28.17-10.32ZM52.35,48.5c-3.38-3.74-6.82-7.55-10.26-11.39-.12-3.47,2.42-10.17,5.04-13.86-3.39,2.41-9.3,4.75-12.94,5.02-3.78-4.25-7.53-8.49-11.18-12.66,4.07-2.46,8.58-3.38,12.74-3.38,4.95,0,9.39,1.3,11.95,2.82,6.85,4.09,8.49,8.56,10.32,28.17l.36,3.81c-2.2.81-4.37,1.37-6.04,1.47ZM34.19,583.72c3.64.27,9.55,2.61,12.94,5.02-2.62-3.69-5.17-10.38-5.04-13.86,3.44-3.84,6.88-7.65,10.26-11.39,1.66.1,3.84.66,6.04,1.47l-.36,3.81c-1.83,19.61-3.47,24.08-10.33,28.17-4.7,2.8-15.76,4.84-24.68-.56,3.65-4.17,7.39-8.41,11.18-12.66ZM61.72,553.18c18.26-20.04,33.38-36.25,36.99-40.08h0s.64-.67.64-.67h0s0,0,0,0l-.67.64h0c-3.39,3.2-19.48,17.71-40.87,36.64l-12.17-6.92c-7.11-4.04-16-12.05-17.64-21.3-1.09-6.1,1.09-12.42,6.46-18.78l1.42-1.68v-173.85c2.83-12.97,8.95-18.52,14.45-21.18-5.5-2.66-11.62-8.22-14.45-21.18V110.97l-1.42-1.68c-5.37-6.36-7.55-12.67-6.46-18.78,1.65-9.25,10.53-17.25,17.64-21.3l12.17-6.92c21.39,18.93,37.48,33.45,40.87,36.64h0s.67.64.67.64h0s0,0,0,0l-.64-.67h0c-3.61-3.83-18.73-20.04-36.99-40.08l7.5-13.19c4.04-7.11,12.05-16,21.29-17.64,6.1-1.09,12.42,1.09,18.78,6.46l1.68,1.42h690.07l1.68-1.42c6.36-5.37,12.68-7.55,18.78-6.46,9.25,1.64,17.25,10.53,21.3,17.64l7.5,13.19c-18.26,20.04-33.38,36.25-36.99,40.08h0s-.64.67-.64.67h0s0,0,0,0l.67-.64h0c3.39-3.2,19.48-17.71,40.87-36.64l12.17,6.92c7.11,4.04,16,12.05,17.64,21.3,1.09,6.1-1.09,12.42-6.46,18.78l-1.42,1.68v173.85c-2.83,12.97-8.95,18.52-14.45,21.18,5.5,2.66,11.62,8.22,14.45,21.18v173.85l1.42,1.68c5.37,6.36,7.55,12.67,6.46,18.78-1.65,9.25-10.53,17.25-17.64,21.3l-12.17,6.92c-21.39-18.93-37.48-33.45-40.87-36.64h0s-.67-.64-.67-.64h0s0,0,0,0l.64.67h0c3.61,3.83,18.73,20.04,36.99,40.08l-7.5,13.19c-4.04,7.11-12.05,16-21.3,17.64-6.1,1.09-12.42-1.09-18.78-6.46l-1.68-1.42H110.97l-1.68,1.42c-6.36,5.37-12.67,7.54-18.78,6.46-9.25-1.65-17.25-10.53-21.29-17.64l-7.5-13.19ZM897.24,587.43c-4.4-3.81-8.77-7.62-13.08-11.38.68-3.61,2.72-8.46,4.81-11.41h0c-3.17,2.25-8.54,4.44-12.2,4.94-4.41-3.87-8.73-7.66-12.91-11.34.22-1.38.66-2.98,1.24-4.61l3.67.34c19.61,1.83,24.08,3.47,28.17,10.32,2.64,4.43,4.61,14.52.3,23.13ZM884.53,543.82c5.44-5.51,9.91-12.42,11.29-20.23,1.63-9.17-.96-18.2-7.69-26.88V115.29c6.73-8.68,9.32-17.71,7.69-26.88-1.39-7.81-5.86-14.72-11.29-20.23,6.23-1.13,11.27-2.85,15.47-6.03v487.7c-4.2-3.17-9.24-4.9-15.47-6.03ZM865.1,58.37c-.59-1.63-1.02-3.23-1.24-4.61,4.17-3.68,8.49-7.48,12.91-11.34,3.66.5,9.03,2.69,12.2,4.94h0c-2.09-2.95-4.13-7.8-4.81-11.41,4.31-3.76,8.68-7.57,13.08-11.38,4.3,8.61,2.34,18.7-.3,23.13-4.09,6.85-8.56,8.49-28.17,10.32l-3.67.34ZM877.81,28.28c-3.64-.27-9.55-2.61-12.94-5.02,2.62,3.69,5.17,10.38,5.04,13.86-3.44,3.84-6.88,7.65-10.26,11.39-1.66-.1-3.84-.66-6.04-1.47l.36-3.81c1.83-19.61,3.47-24.08,10.32-28.17,2.56-1.53,6.99-2.82,11.95-2.82,4.15,0,8.67.92,12.74,3.38-3.65,4.17-7.4,8.41-11.18,12.66ZM859.65,563.5c3.38,3.74,6.82,7.55,10.26,11.39.12,3.47-2.42,10.17-5.04,13.86,3.39-2.41,9.3-4.75,12.94-5.02,3.78,4.25,7.52,8.49,11.18,12.66-8.92,5.4-19.98,3.36-24.68.56-6.85-4.09-8.49-8.56-10.32-28.17l-.36-3.81c2.2-.81,4.37-1.37,6.04-1.47ZM843.82,27.47c-5.51-5.44-12.42-9.91-20.23-11.3-9.16-1.63-18.2.96-26.88,7.69H115.29c-8.68-6.73-17.71-9.32-26.88-7.69-7.81,1.39-14.72,5.86-20.23,11.29-1.13-6.23-2.85-11.27-6.03-15.47h787.7c-3.17,4.2-4.9,9.24-6.03,15.47ZM68.18,584.53c5.51,5.44,12.42,9.91,20.23,11.29,9.17,1.63,18.2-.96,26.88-7.69h681.43c8.68,6.73,17.71,9.32,26.88,7.69,7.81-1.39,14.72-5.86,20.23-11.29,1.13,6.23,2.85,11.27,6.03,15.47H62.15c3.18-4.2,4.9-9.24,6.03-15.47Z"/></svg>